<svg width="49" height="49" viewBox="0 0 49 49" fill="none" xmlns="http://www.w3.org/2000/svg">
<path d="M47.4643 24.6392C47.4628 11.959 37.1835 1.67969 24.5017 1.67969C11.8199 1.67969 1.53906 11.9605 1.53906 24.6423C1.53906 36.0578 9.86906 45.527 20.7808 47.3048L20.9124 47.3232V31.2787H15.0814V24.6392H20.9124V19.5831C20.8833 19.3273 20.868 19.0303 20.868 18.7302C20.868 14.2543 24.4971 10.6252 28.9729 10.6252C29.1888 10.6252 29.4032 10.6344 29.6161 10.6497L29.5885 10.6482C31.4245 10.6742 33.2007 10.8366 34.9341 11.126L34.7289 11.0969V16.7472H31.8318C31.7001 16.7288 31.5485 16.7181 31.3954 16.7181C29.5625 16.7181 28.0756 18.2034 28.0756 20.0378C28.0756 20.142 28.0802 20.2446 28.0894 20.3472L28.0879 20.3334V24.6392H34.4563L33.4381 31.2787H28.0879V47.3232C39.1328 45.5255 47.4628 36.0547 47.4643 24.6392Z" fill="white"/>
</svg>
