<svg width="49" height="49" viewBox="0 0 49 49" fill="none" xmlns="http://www.w3.org/2000/svg">
<g clip-path="url(#clip0_171_58)">
<path d="M24.5002 28.8082C26.8737 28.8082 28.8164 26.875 28.8164 24.492C28.8164 23.5541 28.5102 22.6832 28.003 21.975C27.2182 20.8936 25.9453 20.1758 24.5098 20.1758C23.0743 20.1758 21.8014 20.884 21.0166 21.975C20.5094 22.6832 20.2032 23.5541 20.2032 24.492C20.1936 26.875 22.1268 28.8082 24.5002 28.8082Z" fill="white"/>
<path d="M33.9191 19.2277V15.6102V15.0742H33.3832L29.7656 15.0838L29.7848 19.2373L33.9191 19.2277Z" fill="white"/>
<path d="M31.1973 24.5014C31.1973 28.1955 28.1922 31.2006 24.498 31.2006C20.8039 31.2006 17.7988 28.1955 17.7988 24.5014C17.7988 23.6113 17.9807 22.7596 18.2965 21.9844H14.6406V32.0141C14.6406 33.3061 15.6934 34.3588 16.9854 34.3588H32.0107C33.3027 34.3588 34.3555 33.3061 34.3555 32.0141V21.9844H30.6996C31.025 22.7596 31.1973 23.6113 31.1973 24.5014Z" fill="white"/>
<path d="M24.5 0C10.9676 0 0 10.9676 0 24.5C0 38.0324 10.9676 49 24.5 49C38.0324 49 49 38.0324 49 24.5C49 10.9676 38.0324 0 24.5 0ZM36.75 21.983V32.0127C36.75 34.6254 34.6254 36.75 32.0127 36.75H16.9873C14.3746 36.75 12.25 34.6254 12.25 32.0127V21.983V16.9777C12.25 14.365 14.3746 12.2404 16.9873 12.2404H32.0127C34.6254 12.2404 36.75 14.365 36.75 16.9777V21.983Z" fill="white"/>
</g>
<defs>
<clipPath id="clip0_171_58">
<rect width="49" height="49" fill="white"/>
</clipPath>
</defs>
</svg>
