<svg width="46" height="44" viewBox="0 0 46 44" fill="none" xmlns="http://www.w3.org/2000/svg">
<g clip-path="url(#clip0_38_130)">
<path d="M46 21.2327V35.8872L45.7826 36.144C41.5123 41.1388 35.3275 44 28.8104 44C19.219 44 10.6846 37.8374 7.58009 28.6547L7.17542 27.4626L8.67332 27.4564H18.5305C25.4764 27.4198 31.1237 21.6668 31.1237 14.6361C31.1237 9.13992 27.6749 4.42629 22.849 2.61053C21.8464 2.23149 20.7833 1.98083 19.678 1.87078C19.2975 1.8341 18.917 1.81576 18.5244 1.80964H1.78782V43.9022H0V0H18.5305C19.5693 0.00611366 20.5901 0.122273 21.5746 0.342365C22.0517 0.446297 22.5228 0.580798 22.9819 0.733639C23.9422 1.05155 24.8663 1.47339 25.7421 1.99305C26.8112 2.62887 27.8078 3.40531 28.7017 4.31624C31.4136 7.07962 32.9115 10.7417 32.9115 14.6361C32.9115 18.5305 31.4196 22.1926 28.7077 24.956C25.9958 27.7132 22.3839 29.2477 18.5425 29.2722H9.71218C12.8831 37.0549 20.4028 42.1965 28.8104 42.1965C34.6993 42.1965 40.2923 39.6593 44.2122 35.2147V23.0485H34.3852V21.2388H46V21.2327Z" fill="white"/>
<path d="M21.8626 2.9232C15.9616 4.94682 11.1961 9.5504 9.13649 15.609V15.6946H7.44531C7.44531 15.6946 8.1701 12.3321 10.6223 9.04908C11.9873 7.2211 13.6121 5.6132 15.4663 4.2682C16.4327 3.57124 17.4474 2.95376 18.4984 2.42188H18.5165C19.6822 2.42799 20.7996 2.60528 21.8626 2.9232Z" fill="white"/>
<path d="M45.9227 7.99004L44.5396 9.08439C40.6438 4.49303 34.8093 1.78468 28.6969 1.78468C28.0265 1.78468 27.3681 1.81525 26.7098 1.87638C25.8762 1.32004 24.9944 0.855404 24.0703 0.48247C25.5743 0.170674 27.1265 0.0117188 28.6969 0.0117188C32.2544 0.0117188 35.7998 0.855403 38.9406 2.45107C41.6042 3.8083 44.002 5.70965 45.9227 7.99004Z" fill="white"/>
</g>
<defs>
<clipPath id="clip0_38_130">
<rect width="46" height="44" fill="white"/>
</clipPath>
</defs>
</svg>
